<mxfile host="app.diagrams.net" modified="2022-11-18T09:45:33.278Z" agent="5.0 (Windows NT 10.0; Win64; x64) AppleWebKit/537.36 (KHTML, like Gecko) Chrome/107.0.0.0 Safari/537.36" etag="VBsdz0uUP4WkbVByeKHd" version="20.5.3" type="github">
  <diagram id="xw6Lqab8q3tOqTCuQBjh" name="Page-1">
    <mxGraphModel dx="931" dy="712" grid="1" gridSize="10" guides="1" tooltips="1" connect="1" arrows="1" fold="1" page="1" pageScale="1" pageWidth="850" pageHeight="1100" math="0" shadow="0">
      <root>
        <mxCell id="0" />
        <mxCell id="1" parent="0" />
        <mxCell id="tuBDlLSeXcisdvezHDOR-2" value="my" style="swimlane;whiteSpace=wrap;html=1;" vertex="1" parent="1">
          <mxGeometry x="10" y="160" width="200" height="160" as="geometry" />
        </mxCell>
        <mxCell id="tuBDlLSeXcisdvezHDOR-4" value="data" style="swimlane;fontStyle=0;childLayout=stackLayout;horizontal=1;startSize=30;horizontalStack=0;resizeParent=1;resizeParentMax=0;resizeLast=0;collapsible=1;marginBottom=0;whiteSpace=wrap;html=1;" vertex="1" parent="tuBDlLSeXcisdvezHDOR-2">
          <mxGeometry x="20" y="40" width="150" height="90" as="geometry" />
        </mxCell>
        <mxCell id="tuBDlLSeXcisdvezHDOR-5" value="conditons:[]" style="text;strokeColor=none;fillColor=none;align=left;verticalAlign=middle;spacingLeft=4;spacingRight=4;overflow=hidden;points=[[0,0.5],[1,0.5]];portConstraint=eastwest;rotatable=0;whiteSpace=wrap;html=1;" vertex="1" parent="tuBDlLSeXcisdvezHDOR-4">
          <mxGeometry y="30" width="150" height="30" as="geometry" />
        </mxCell>
        <mxCell id="tuBDlLSeXcisdvezHDOR-19" value="rebuildParams:{}" style="text;strokeColor=none;fillColor=none;align=left;verticalAlign=middle;spacingLeft=4;spacingRight=4;overflow=hidden;points=[[0,0.5],[1,0.5]];portConstraint=eastwest;rotatable=0;whiteSpace=wrap;html=1;" vertex="1" parent="tuBDlLSeXcisdvezHDOR-4">
          <mxGeometry y="60" width="150" height="30" as="geometry" />
        </mxCell>
        <mxCell id="tuBDlLSeXcisdvezHDOR-8" value="searchPage" style="swimlane;whiteSpace=wrap;html=1;" vertex="1" parent="1">
          <mxGeometry x="280" y="160" width="190" height="390" as="geometry" />
        </mxCell>
        <mxCell id="tuBDlLSeXcisdvezHDOR-9" value="props" style="swimlane;fontStyle=0;childLayout=stackLayout;horizontal=1;startSize=30;horizontalStack=0;resizeParent=1;resizeParentMax=0;resizeLast=0;collapsible=1;marginBottom=0;whiteSpace=wrap;html=1;" vertex="1" parent="tuBDlLSeXcisdvezHDOR-8">
          <mxGeometry x="10" y="40" width="170" height="90" as="geometry" />
        </mxCell>
        <mxCell id="tuBDlLSeXcisdvezHDOR-10" value="conditions" style="text;strokeColor=none;fillColor=none;align=left;verticalAlign=middle;spacingLeft=4;spacingRight=4;overflow=hidden;points=[[0,0.5],[1,0.5]];portConstraint=eastwest;rotatable=0;whiteSpace=wrap;html=1;" vertex="1" parent="tuBDlLSeXcisdvezHDOR-9">
          <mxGeometry y="30" width="170" height="30" as="geometry" />
        </mxCell>
        <mxCell id="tuBDlLSeXcisdvezHDOR-12" value="rebuldParams" style="text;strokeColor=none;fillColor=none;align=left;verticalAlign=middle;spacingLeft=4;spacingRight=4;overflow=hidden;points=[[0,0.5],[1,0.5]];portConstraint=eastwest;rotatable=0;whiteSpace=wrap;html=1;" vertex="1" parent="tuBDlLSeXcisdvezHDOR-9">
          <mxGeometry y="60" width="170" height="30" as="geometry" />
        </mxCell>
        <mxCell id="tuBDlLSeXcisdvezHDOR-13" value="data" style="swimlane;fontStyle=0;childLayout=stackLayout;horizontal=1;startSize=30;horizontalStack=0;resizeParent=1;resizeParentMax=0;resizeLast=0;collapsible=1;marginBottom=0;whiteSpace=wrap;html=1;" vertex="1" parent="tuBDlLSeXcisdvezHDOR-8">
          <mxGeometry x="10" y="140" width="170" height="90" as="geometry" />
        </mxCell>
        <mxCell id="tuBDlLSeXcisdvezHDOR-14" value="params" style="text;strokeColor=none;fillColor=none;align=left;verticalAlign=middle;spacingLeft=4;spacingRight=4;overflow=hidden;points=[[0,0.5],[1,0.5]];portConstraint=eastwest;rotatable=0;whiteSpace=wrap;html=1;" vertex="1" parent="tuBDlLSeXcisdvezHDOR-13">
          <mxGeometry y="30" width="170" height="30" as="geometry" />
        </mxCell>
        <mxCell id="tuBDlLSeXcisdvezHDOR-15" value="searchParams" style="text;strokeColor=none;fillColor=none;align=left;verticalAlign=middle;spacingLeft=4;spacingRight=4;overflow=hidden;points=[[0,0.5],[1,0.5]];portConstraint=eastwest;rotatable=0;whiteSpace=wrap;html=1;" vertex="1" parent="tuBDlLSeXcisdvezHDOR-13">
          <mxGeometry y="60" width="170" height="30" as="geometry" />
        </mxCell>
        <mxCell id="tuBDlLSeXcisdvezHDOR-20" value="computed" style="swimlane;fontStyle=0;childLayout=stackLayout;horizontal=1;startSize=30;horizontalStack=0;resizeParent=1;resizeParentMax=0;resizeLast=0;collapsible=1;marginBottom=0;whiteSpace=wrap;html=1;" vertex="1" parent="tuBDlLSeXcisdvezHDOR-8">
          <mxGeometry x="10" y="260" width="170" height="90" as="geometry" />
        </mxCell>
        <mxCell id="tuBDlLSeXcisdvezHDOR-58" style="edgeStyle=orthogonalEdgeStyle;rounded=0;orthogonalLoop=1;jettySize=auto;html=1;entryX=1;entryY=0.5;entryDx=0;entryDy=0;" edge="1" parent="tuBDlLSeXcisdvezHDOR-20" source="tuBDlLSeXcisdvezHDOR-21" target="tuBDlLSeXcisdvezHDOR-22">
          <mxGeometry relative="1" as="geometry">
            <Array as="points">
              <mxPoint x="240" y="45" />
              <mxPoint x="240" y="70" />
              <mxPoint x="190" y="70" />
              <mxPoint x="190" y="75" />
            </Array>
          </mxGeometry>
        </mxCell>
        <mxCell id="tuBDlLSeXcisdvezHDOR-21" value="_params" style="text;strokeColor=none;fillColor=none;align=left;verticalAlign=middle;spacingLeft=4;spacingRight=4;overflow=hidden;points=[[0,0.5],[1,0.5]];portConstraint=eastwest;rotatable=0;whiteSpace=wrap;html=1;" vertex="1" parent="tuBDlLSeXcisdvezHDOR-20">
          <mxGeometry y="30" width="170" height="30" as="geometry" />
        </mxCell>
        <mxCell id="tuBDlLSeXcisdvezHDOR-22" value="_conditions" style="text;strokeColor=none;fillColor=none;align=left;verticalAlign=middle;spacingLeft=4;spacingRight=4;overflow=hidden;points=[[0,0.5],[1,0.5]];portConstraint=eastwest;rotatable=0;whiteSpace=wrap;html=1;" vertex="1" parent="tuBDlLSeXcisdvezHDOR-20">
          <mxGeometry y="60" width="170" height="30" as="geometry" />
        </mxCell>
        <mxCell id="tuBDlLSeXcisdvezHDOR-53" style="edgeStyle=orthogonalEdgeStyle;rounded=0;orthogonalLoop=1;jettySize=auto;html=1;" edge="1" parent="tuBDlLSeXcisdvezHDOR-8" source="tuBDlLSeXcisdvezHDOR-14" target="tuBDlLSeXcisdvezHDOR-21">
          <mxGeometry relative="1" as="geometry">
            <Array as="points">
              <mxPoint x="-40" y="185" />
              <mxPoint x="-40" y="305" />
            </Array>
          </mxGeometry>
        </mxCell>
        <mxCell id="tuBDlLSeXcisdvezHDOR-56" style="edgeStyle=orthogonalEdgeStyle;rounded=0;orthogonalLoop=1;jettySize=auto;html=1;entryX=0;entryY=0.5;entryDx=0;entryDy=0;" edge="1" parent="tuBDlLSeXcisdvezHDOR-8" source="tuBDlLSeXcisdvezHDOR-12" target="tuBDlLSeXcisdvezHDOR-21">
          <mxGeometry relative="1" as="geometry">
            <Array as="points">
              <mxPoint x="95" y="240" />
              <mxPoint x="-70" y="240" />
              <mxPoint x="-70" y="305" />
            </Array>
          </mxGeometry>
        </mxCell>
        <mxCell id="tuBDlLSeXcisdvezHDOR-59" style="edgeStyle=orthogonalEdgeStyle;rounded=0;orthogonalLoop=1;jettySize=auto;html=1;" edge="1" parent="tuBDlLSeXcisdvezHDOR-8" source="tuBDlLSeXcisdvezHDOR-22" target="tuBDlLSeXcisdvezHDOR-15">
          <mxGeometry relative="1" as="geometry">
            <Array as="points">
              <mxPoint x="130" y="300" />
              <mxPoint x="130" y="300" />
            </Array>
          </mxGeometry>
        </mxCell>
        <mxCell id="tuBDlLSeXcisdvezHDOR-27" value="" style="edgeStyle=orthogonalEdgeStyle;rounded=0;orthogonalLoop=1;jettySize=auto;html=1;" edge="1" parent="1" source="tuBDlLSeXcisdvezHDOR-19" target="tuBDlLSeXcisdvezHDOR-12">
          <mxGeometry relative="1" as="geometry">
            <Array as="points">
              <mxPoint x="220" y="285" />
              <mxPoint x="220" y="275" />
            </Array>
          </mxGeometry>
        </mxCell>
        <mxCell id="tuBDlLSeXcisdvezHDOR-28" value="" style="edgeStyle=orthogonalEdgeStyle;rounded=0;orthogonalLoop=1;jettySize=auto;html=1;" edge="1" parent="1" source="tuBDlLSeXcisdvezHDOR-5" target="tuBDlLSeXcisdvezHDOR-10">
          <mxGeometry relative="1" as="geometry" />
        </mxCell>
        <mxCell id="tuBDlLSeXcisdvezHDOR-29" value="searchConditons" style="swimlane;whiteSpace=wrap;html=1;" vertex="1" parent="1">
          <mxGeometry x="550" y="160" width="190" height="290" as="geometry" />
        </mxCell>
        <mxCell id="tuBDlLSeXcisdvezHDOR-30" value="props" style="swimlane;fontStyle=0;childLayout=stackLayout;horizontal=1;startSize=30;horizontalStack=0;resizeParent=1;resizeParentMax=0;resizeLast=0;collapsible=1;marginBottom=0;whiteSpace=wrap;html=1;" vertex="1" parent="tuBDlLSeXcisdvezHDOR-29">
          <mxGeometry x="20" y="30" width="140" height="60" as="geometry" />
        </mxCell>
        <mxCell id="tuBDlLSeXcisdvezHDOR-31" value="config:[]" style="text;strokeColor=none;fillColor=none;align=left;verticalAlign=middle;spacingLeft=4;spacingRight=4;overflow=hidden;points=[[0,0.5],[1,0.5]];portConstraint=eastwest;rotatable=0;whiteSpace=wrap;html=1;" vertex="1" parent="tuBDlLSeXcisdvezHDOR-30">
          <mxGeometry y="30" width="140" height="30" as="geometry" />
        </mxCell>
        <mxCell id="tuBDlLSeXcisdvezHDOR-34" value="data" style="swimlane;fontStyle=0;childLayout=stackLayout;horizontal=1;startSize=30;horizontalStack=0;resizeParent=1;resizeParentMax=0;resizeLast=0;collapsible=1;marginBottom=0;whiteSpace=wrap;html=1;" vertex="1" parent="tuBDlLSeXcisdvezHDOR-29">
          <mxGeometry x="20" y="110" width="140" height="60" as="geometry" />
        </mxCell>
        <mxCell id="tuBDlLSeXcisdvezHDOR-35" value="conditions:{}" style="text;strokeColor=none;fillColor=none;align=left;verticalAlign=middle;spacingLeft=4;spacingRight=4;overflow=hidden;points=[[0,0.5],[1,0.5]];portConstraint=eastwest;rotatable=0;whiteSpace=wrap;html=1;" vertex="1" parent="tuBDlLSeXcisdvezHDOR-34">
          <mxGeometry y="30" width="140" height="30" as="geometry" />
        </mxCell>
        <mxCell id="tuBDlLSeXcisdvezHDOR-38" value="computed" style="swimlane;fontStyle=0;childLayout=stackLayout;horizontal=1;startSize=30;horizontalStack=0;resizeParent=1;resizeParentMax=0;resizeLast=0;collapsible=1;marginBottom=0;whiteSpace=wrap;html=1;" vertex="1" parent="tuBDlLSeXcisdvezHDOR-29">
          <mxGeometry x="20" y="185" width="140" height="60" as="geometry" />
        </mxCell>
        <mxCell id="tuBDlLSeXcisdvezHDOR-39" value="_config" style="text;strokeColor=none;fillColor=none;align=left;verticalAlign=middle;spacingLeft=4;spacingRight=4;overflow=hidden;points=[[0,0.5],[1,0.5]];portConstraint=eastwest;rotatable=0;whiteSpace=wrap;html=1;" vertex="1" parent="tuBDlLSeXcisdvezHDOR-38">
          <mxGeometry y="30" width="140" height="30" as="geometry" />
        </mxCell>
        <mxCell id="tuBDlLSeXcisdvezHDOR-50" style="edgeStyle=orthogonalEdgeStyle;rounded=0;orthogonalLoop=1;jettySize=auto;html=1;" edge="1" parent="tuBDlLSeXcisdvezHDOR-29" source="tuBDlLSeXcisdvezHDOR-31">
          <mxGeometry relative="1" as="geometry">
            <mxPoint x="160" y="230" as="targetPoint" />
            <Array as="points">
              <mxPoint x="230" y="75" />
              <mxPoint x="230" y="230" />
            </Array>
          </mxGeometry>
        </mxCell>
        <mxCell id="tuBDlLSeXcisdvezHDOR-51" style="edgeStyle=orthogonalEdgeStyle;rounded=0;orthogonalLoop=1;jettySize=auto;html=1;" edge="1" parent="tuBDlLSeXcisdvezHDOR-29" source="tuBDlLSeXcisdvezHDOR-39" target="tuBDlLSeXcisdvezHDOR-35">
          <mxGeometry relative="1" as="geometry">
            <Array as="points">
              <mxPoint x="90" y="280" />
              <mxPoint x="260" y="280" />
              <mxPoint x="260" y="155" />
            </Array>
          </mxGeometry>
        </mxCell>
        <mxCell id="tuBDlLSeXcisdvezHDOR-52" value="setConditon" style="edgeLabel;html=1;align=center;verticalAlign=middle;resizable=0;points=[];" vertex="1" connectable="0" parent="tuBDlLSeXcisdvezHDOR-51">
          <mxGeometry x="-0.2326" y="2" relative="1" as="geometry">
            <mxPoint as="offset" />
          </mxGeometry>
        </mxCell>
        <mxCell id="tuBDlLSeXcisdvezHDOR-42" value="" style="edgeStyle=orthogonalEdgeStyle;rounded=0;orthogonalLoop=1;jettySize=auto;html=1;" edge="1" parent="1" source="tuBDlLSeXcisdvezHDOR-14" target="tuBDlLSeXcisdvezHDOR-35">
          <mxGeometry relative="1" as="geometry" />
        </mxCell>
        <mxCell id="tuBDlLSeXcisdvezHDOR-45" style="edgeStyle=orthogonalEdgeStyle;rounded=0;orthogonalLoop=1;jettySize=auto;html=1;" edge="1" parent="1" source="tuBDlLSeXcisdvezHDOR-35" target="tuBDlLSeXcisdvezHDOR-14">
          <mxGeometry relative="1" as="geometry">
            <Array as="points">
              <mxPoint x="500" y="315" />
              <mxPoint x="500" y="345" />
            </Array>
          </mxGeometry>
        </mxCell>
        <mxCell id="tuBDlLSeXcisdvezHDOR-46" style="edgeStyle=orthogonalEdgeStyle;rounded=0;orthogonalLoop=1;jettySize=auto;html=1;" edge="1" parent="1" source="tuBDlLSeXcisdvezHDOR-10" target="tuBDlLSeXcisdvezHDOR-31">
          <mxGeometry relative="1" as="geometry" />
        </mxCell>
        <mxCell id="tuBDlLSeXcisdvezHDOR-60" value="数组变成对象" style="text;html=1;align=center;verticalAlign=middle;resizable=0;points=[];autosize=1;strokeColor=none;fillColor=none;" vertex="1" parent="1">
          <mxGeometry x="730" y="445" width="100" height="30" as="geometry" />
        </mxCell>
        <mxCell id="tuBDlLSeXcisdvezHDOR-61" value="搜索条件映射到接口" style="text;html=1;align=center;verticalAlign=middle;resizable=0;points=[];autosize=1;strokeColor=none;fillColor=none;" vertex="1" parent="1">
          <mxGeometry x="110" y="430" width="130" height="30" as="geometry" />
        </mxCell>
        <mxCell id="tuBDlLSeXcisdvezHDOR-66" value="各种表单" style="swimlane;whiteSpace=wrap;html=1;" vertex="1" parent="1">
          <mxGeometry x="860" y="160" width="150" height="150" as="geometry" />
        </mxCell>
        <mxCell id="tuBDlLSeXcisdvezHDOR-67" value="input" style="whiteSpace=wrap;html=1;" vertex="1" parent="tuBDlLSeXcisdvezHDOR-66">
          <mxGeometry x="30" y="40" width="110" height="20" as="geometry" />
        </mxCell>
        <mxCell id="tuBDlLSeXcisdvezHDOR-69" value="checkbox" style="whiteSpace=wrap;html=1;" vertex="1" parent="tuBDlLSeXcisdvezHDOR-66">
          <mxGeometry x="30" y="70" width="110" height="30" as="geometry" />
        </mxCell>
        <mxCell id="tuBDlLSeXcisdvezHDOR-70" value="......" style="whiteSpace=wrap;html=1;" vertex="1" parent="tuBDlLSeXcisdvezHDOR-66">
          <mxGeometry x="30" y="110" width="110" height="30" as="geometry" />
        </mxCell>
        <mxCell id="tuBDlLSeXcisdvezHDOR-71" style="edgeStyle=orthogonalEdgeStyle;rounded=0;orthogonalLoop=1;jettySize=auto;html=1;entryX=0;entryY=0.5;entryDx=0;entryDy=0;" edge="1" parent="1" source="tuBDlLSeXcisdvezHDOR-35" target="tuBDlLSeXcisdvezHDOR-66">
          <mxGeometry relative="1" as="geometry" />
        </mxCell>
        <mxCell id="tuBDlLSeXcisdvezHDOR-72" value="v-model" style="text;html=1;align=center;verticalAlign=middle;resizable=0;points=[];autosize=1;strokeColor=none;fillColor=none;" vertex="1" parent="1">
          <mxGeometry x="800" y="225" width="70" height="30" as="geometry" />
        </mxCell>
      </root>
    </mxGraphModel>
  </diagram>
</mxfile>
